<svg width="24" height="24" viewBox="0 0 24 24" fill="none" xmlns="http://www.w3.org/2000/svg">
<path fill-rule="evenodd" clip-rule="evenodd" d="M14.586 12L8.29298 5.70701C8.11082 5.51841 8.01003 5.26581 8.01231 5.00361C8.01459 4.74141 8.11976 4.4906 8.30516 4.30519C8.49057 4.11978 8.74138 4.01461 9.00358 4.01234C9.26578 4.01006 9.51838 4.11085 9.70698 4.29301L16.707 11.293C16.7999 11.3858 16.8737 11.496 16.924 11.6173C16.9743 11.7386 17.0002 11.8687 17.0002 12C17.0002 12.1313 16.9743 12.2614 16.924 12.3827C16.8737 12.504 16.7999 12.6142 16.707 12.707L9.70698 19.707C9.51838 19.8892 9.26578 19.99 9.00358 19.9877C8.74138 19.9854 8.49057 19.8802 8.30516 19.6948C8.11976 19.5094 8.01459 19.2586 8.01231 18.9964C8.01003 18.7342 8.11082 18.4816 8.29298 18.293L14.586 12Z" fill="#292A31"/>
</svg>
